M48
; DRILL file {KiCad (5.1.9)-1} date 11/05/21 16:41:04
; FORMAT={-:-/ absolute / inch / decimal}
; #@! TF.CreationDate,2021-11-05T16:41:04+01:00
; #@! TF.GenerationSoftware,Kicad,Pcbnew,(5.1.9)-1
FMAT,2
INCH
T1C0.0315
T2C0.0394
T3C0.0472
T4C0.0598
T5C0.1063
%
G90
G05
T1
X2.8Y-3.14
X2.9Y-3.3
X3.1Y-3.14
X3.2Y-3.3
T2
X2.53Y-2.74
X2.53Y-2.84
X2.53Y-2.94
X2.62Y-2.22
X2.62Y-3.46
X2.72Y-2.22
X2.72Y-3.46
X2.82Y-2.22
X2.82Y-3.46
X2.92Y-2.22
X2.92Y-3.46
X3.02Y-2.22
X3.02Y-3.46
X3.12Y-2.22
X3.12Y-3.46
X3.22Y-2.22
X3.22Y-3.46
X3.32Y-2.22
X3.32Y-3.46
X4.53Y-2.22
X4.63Y-2.22
T3
X2.91Y-2.69
X2.91Y-2.79
X2.91Y-2.89
T4
X4.87Y-3.41
X4.91Y-2.25
X5.07Y-3.41
X5.11Y-2.25
X5.36Y-2.73
X5.36Y-2.93
T5
X2.54Y-2.49
X2.54Y-3.2
X5.4Y-2.47
X5.4Y-3.19
T0
M30
